<?xml version="1.0" standalone="no"?>
<!DOCTYPE svg PUBLIC "-//W3C//DTD SVG 20010904//EN"
 "http://www.w3.org/TR/2001/REC-SVG-20010904/DTD/svg10.dtd">
<svg version="1.0" xmlns="http://www.w3.org/2000/svg"
 width="1020.000000pt" height="1024.000000pt" viewBox="0 0 1020.000000 1024.000000"
 preserveAspectRatio="xMidYMid meet">

<g transform="translate(0.000000,1024.000000) scale(0.100000,-0.100000)"
fill="#000000" stroke="none">
<path d="M4831 7856 c2 -2 18 -6 34 -10 22 -5 26 -4 15 4 -14 9 -59 15 -49 6z"/>
<path d="M4910 7850 c8 -5 20 -10 25 -10 6 0 3 5 -5 10 -8 5 -19 10 -25 10 -5
0 -3 -5 5 -10z"/>
<path d="M4763 7816 c-15 -13 -25 -27 -22 -30 3 -3 18 8 34 24 35 36 27 40
-12 6z"/>
<path d="M5248 7818 c-27 -9 -39 -28 -18 -28 6 0 9 -6 8 -12 -2 -7 8 -14 22
-16 20 -2 22 -1 10 7 -10 7 -11 11 -2 11 6 0 12 5 12 11 0 6 -7 9 -15 5 -8 -3
-15 -1 -15 4 0 6 7 10 15 10 8 0 15 5 15 10 0 6 -1 10 -2 9 -2 0 -15 -5 -30
-11z"/>
<path d="M5296 7821 c-4 -7 -1 -9 8 -5 8 3 24 1 35 -6 15 -7 27 -8 39 -1 15 9
14 10 -8 11 -14 0 -35 3 -46 6 -12 3 -25 1 -28 -5z"/>
<path d="M4964 7808 c-5 -7 -3 -8 5 -4 7 5 22 0 34 -11 l22 -18 -19 23 c-21
25 -32 27 -42 10z"/>
<path d="M4783 7795 c-7 -8 -13 -16 -13 -19 0 -2 6 -6 13 -9 7 -3 13 5 13 19
1 13 1 24 0 24 0 -1 -7 -7 -13 -15z"/>
<path d="M4967 7776 c-4 -10 -1 -13 9 -9 15 6 19 23 5 23 -5 0 -11 -7 -14 -14z"/>
<path d="M5181 7780 c-9 -5 -4 -7 13 -7 29 0 32 2 13 10 -8 3 -20 2 -26 -3z"/>
<path d="M5441 7773 c7 -12 15 -20 18 -17 3 2 -3 12 -13 22 -17 16 -18 16 -5
-5z"/>
<path d="M5142 7740 c-8 -13 -8 -20 -2 -20 6 0 13 7 17 15 9 24 -1 27 -15 5z"/>
<path d="M5185 7750 c3 -5 8 -10 11 -10 2 0 4 5 4 10 0 6 -5 10 -11 10 -5 0
-7 -4 -4 -10z"/>
<path d="M5442 7715 c0 -16 2 -22 5 -12 2 9 2 23 0 30 -3 6 -5 -1 -5 -18z"/>
<path d="M5462 7706 c1 -19 6 -32 10 -30 4 3 8 -13 8 -36 0 -23 -4 -39 -9 -36
-5 4 -7 -4 -3 -16 5 -21 5 -21 14 3 5 13 7 42 3 64 -3 22 -7 50 -8 63 -3 36
-18 25 -15 -12z"/>
<path d="M5053 7709 c2 -20 7 -24 34 -25 18 0 30 3 27 8 -3 4 -14 8 -24 8 -10
0 -23 8 -29 17 -8 14 -9 13 -8 -8z"/>
<path d="M5165 7710 c-16 -17 -16 -20 -3 -15 9 4 19 13 22 21 7 19 2 18 -19
-6z"/>
<path d="M4697 7690 c7 -42 9 -45 16 -27 3 7 -1 24 -9 38 -13 23 -13 23 -7
-11z"/>
<path d="M4682 7630 c0 -19 2 -27 5 -17 2 9 2 25 0 35 -3 9 -5 1 -5 -18z"/>
<path d="M5460 7649 c0 -5 -4 -7 -10 -4 -5 3 -10 2 -10 -3 0 -6 7 -12 15 -16
10 -4 15 1 15 14 0 11 -2 20 -5 20 -3 0 -5 -5 -5 -11z"/>
<path d="M5502 7635 c0 -16 2 -22 5 -12 2 9 2 23 0 30 -3 6 -5 -1 -5 -18z"/>
<path d="M5442 7600 c0 -14 2 -19 5 -12 2 6 2 18 0 25 -3 6 -5 1 -5 -13z"/>
<path d="M4706 7575 c8 -37 14 -45 14 -19 0 10 -5 26 -10 34 -8 11 -9 7 -4
-15z"/>
<path d="M4686 7555 c8 -37 14 -45 14 -19 0 10 -5 26 -10 34 -8 11 -9 7 -4
-15z"/>
<path d="M5445 7469 c-4 -6 -5 -12 -2 -15 2 -3 7 2 10 11 7 17 1 20 -8 4z"/>
<path d="M4751 7408 c12 -18 23 -34 24 -36 2 -1 5 6 8 17 3 13 1 18 -8 15 -7
-3 -16 4 -20 15 -3 12 -11 21 -16 21 -6 0 0 -15 12 -32z"/>
<path d="M5370 7427 c0 -8 7 -17 15 -21 8 -3 15 -3 15 0 0 3 -7 12 -15 20 -13
13 -15 13 -15 1z"/>
<path d="M5415 7410 c-4 -16 -10 -32 -15 -35 -4 -3 -2 -22 6 -42 19 -54 17
-131 -6 -180 -30 -66 -99 -129 -162 -147 -67 -19 -148 -25 -213 -16 l-50 7
106 50 c126 61 211 135 228 197 11 40 0 73 -20 60 -15 -9 -10 -24 6 -18 21 8
19 -9 -3 -29 -24 -22 -38 -22 -21 1 13 15 12 16 -3 4 -9 -8 -14 -20 -11 -28 3
-8 0 -14 -5 -14 -17 0 -26 41 -11 51 8 5 9 9 3 9 -11 0 -44 -32 -44 -43 0 -3
7 -4 15 -1 10 4 15 0 15 -15 0 -15 -4 -19 -17 -14 -11 4 -14 3 -9 -5 4 -7 2
-12 -4 -12 -6 0 -9 -4 -5 -10 9 -15 -74 -64 -110 -64 -22 0 -31 -4 -28 -12 3
-7 -14 -21 -39 -32 -24 -11 -58 -31 -77 -46 -40 -30 -41 -30 -201 29 -63 24
-141 49 -174 56 l-58 13 5 33 c13 80 70 119 217 148 47 10 87 19 88 20 2 2 -8
11 -22 20 -23 15 -31 15 -102 1 -42 -9 -98 -28 -123 -42 -58 -31 -101 -93
-101 -145 l0 -36 -73 -6 c-127 -9 -198 -55 -245 -157 -19 -42 -26 -76 -28
-140 -3 -68 -7 -86 -21 -93 -10 -5 -46 -38 -80 -73 -98 -101 -135 -197 -122
-321 8 -81 56 -179 112 -229 23 -21 52 -56 65 -78 28 -49 83 -257 112 -426 39
-227 81 -319 171 -375 54 -35 192 -80 299 -100 146 -26 502 -33 610 -11 172
35 362 114 420 175 32 33 48 72 127 307 121 358 134 386 168 390 56 6 111 81
139 191 42 159 -2 326 -108 420 -38 34 -44 44 -50 95 -9 74 -59 174 -95 193
-23 12 -29 22 -34 64 -16 138 -126 258 -269 295 -29 7 -62 12 -74 10 -17 -3
-22 4 -32 44 -6 26 -16 61 -23 77 -7 17 -11 38 -10 48 4 29 -7 19 -14 -13z
m184 -307 c69 -53 79 -154 25 -253 -32 -60 -76 -101 -142 -134 -96 -48 -160
-57 -457 -66 -383 -12 -437 -28 -498 -153 -21 -44 -33 -57 -50 -57 -31 1 -96
32 -134 64 l-33 28 6 81 c3 45 8 91 11 102 13 44 63 102 111 128 78 42 170 45
362 12 86 -15 215 -29 291 -32 123 -5 142 -4 203 17 112 37 205 139 194 212
-3 20 -9 15 -46 -35 -74 -99 -158 -136 -322 -144 -88 -5 -127 -1 -240 21 -179
36 -324 44 -410 22 -57 -14 -72 -23 -117 -70 -55 -59 -93 -141 -93 -201 0 -72
-35 -40 -71 63 -23 68 -24 143 -3 208 34 99 80 135 202 156 89 15 192 -4 341
-62 189 -74 410 -91 541 -41 70 26 140 95 175 173 l26 57 47 -35 c26 -19 62
-46 81 -61z m26 68 c62 -36 95 -66 131 -121 27 -40 29 -50 29 -139 -1 -82 -5
-106 -29 -163 -64 -154 -260 -283 -540 -355 -82 -22 -125 -26 -231 -27 -148
-1 -198 10 -251 56 -43 38 -64 77 -64 118 0 24 6 33 28 41 15 6 164 17 332 24
336 15 385 23 503 88 78 42 130 108 158 200 34 110 7 193 -88 265 -64 48 -52
56 22 13z m244 -347 c52 -66 63 -181 25 -256 -49 -98 -142 -145 -310 -155
-104 -7 -152 7 -99 27 52 20 190 117 234 165 47 51 96 146 106 206 8 46 16 48
44 13z m-1711 -167 c29 -81 142 -195 233 -236 54 -25 121 -27 140 -5 8 9 26
40 40 68 14 28 29 51 33 51 4 0 14 -17 20 -37 48 -138 207 -204 433 -178 54 6
127 18 163 27 48 13 114 17 250 18 201 2 277 15 357 61 49 28 99 85 114 131
l11 33 34 -26 c20 -15 47 -54 66 -92 29 -57 33 -79 36 -157 4 -97 -18 -189
-59 -247 -32 -44 -51 -44 -147 5 -202 104 -278 111 -476 42 -232 -81 -347 -92
-454 -46 -125 53 -177 50 -284 -20 -38 -24 -73 -39 -92 -39 -66 0 -132 66
-167 166 -32 92 -44 106 -87 102 -30 -2 -42 -11 -69 -48 -89 -124 -118 -143
-178 -114 -42 20 -98 101 -121 177 -15 49 -16 68 -7 121 6 35 19 80 29 102 20
42 140 174 158 174 7 0 17 -15 24 -33z m179 -429 c6 -7 18 -37 28 -66 9 -29
33 -76 52 -105 l35 -52 45 -398 c24 -220 42 -401 40 -404 -3 -2 -20 2 -39 10
-34 14 -35 16 -50 108 -9 52 -48 273 -87 493 -54 303 -69 402 -60 412 14 17
24 18 36 2z m1337 -117 c21 -5 43 -14 48 -19 6 -6 -30 -135 -96 -343 -182
-581 -166 -537 -194 -544 -13 -3 -27 -4 -29 -1 -5 4 31 191 138 714 21 105 39
194 39 197 0 8 51 5 94 -4z m-1425 -53 c6 -29 40 -213 76 -408 36 -195 67
-360 69 -367 17 -45 -57 3 -83 55 -29 56 -59 166 -76 275 -24 155 -71 340
-110 430 -5 13 -2 17 12 17 11 0 35 11 54 24 19 13 37 25 41 25 4 1 11 -23 17
-51z m1254 21 c-1 -8 -32 -167 -68 -354 -36 -187 -75 -388 -86 -446 l-21 -107
-49 -9 -49 -10 1 31 c0 17 26 217 57 445 l57 414 70 27 c74 30 91 31 88 9z
m-618 -31 c3 -2 -2 -186 -10 -409 -8 -222 -15 -423 -15 -446 l0 -43 -39 0
c-22 0 -42 4 -45 8 -2 4 -12 203 -22 442 -16 423 -16 434 2 447 18 14 116 14
129 1z m972 -13 c52 -31 54 -47 14 -141 -16 -38 -64 -174 -106 -302 -56 -170
-84 -242 -105 -265 -28 -32 -109 -82 -118 -73 -8 8 251 806 262 806 5 0 29
-11 53 -25z m-587 -35 c0 -10 -7 -68 -15 -127 -8 -59 -30 -234 -50 -388 -48
-374 -41 -345 -76 -345 -25 0 -29 4 -29 28 0 23 65 750 73 817 1 13 12 22 32
26 54 12 65 10 65 -11z m-207 -5 c39 -3 42 -5 40 -31 -2 -16 -10 -117 -19
-224 -9 -107 -24 -285 -33 -395 l-16 -200 -55 0 -55 0 0 60 c0 104 26 779 31
793 3 10 13 12 34 7 17 -4 49 -8 73 -10z m-393 -27 c1 -13 3 -39 5 -58 2 -19
9 -152 15 -295 5 -143 13 -302 16 -352 l6 -93 -30 0 c-17 0 -41 4 -55 9 -22 9
-24 17 -35 128 -7 65 -23 226 -37 358 -13 132 -26 253 -27 270 -3 29 -3 30 50
31 29 0 58 6 64 12 18 18 28 14 28 -10z"/>
<path d="M5368 7373 c5 -21 7 -23 10 -9 2 10 0 22 -6 28 -6 6 -7 0 -4 -19z"/>
<path d="M4815 7350 c3 -5 11 -10 16 -10 6 0 7 5 4 10 -3 6 -11 10 -16 10 -6
0 -7 -4 -4 -10z"/>
<path d="M5295 7349 c-4 -5 3 -19 16 -30 24 -21 34 -24 24 -9 -4 6 -1 17 5 25
9 11 9 15 1 15 -6 0 -11 -4 -11 -10 0 -5 -5 -10 -11 -10 -6 0 -9 7 -5 15 6 17
-9 21 -19 4z"/>
<path d="M4850 7322 c0 -6 5 -14 10 -17 6 -4 10 -12 9 -18 -4 -33 2 -37 22
-18 21 20 20 59 -1 46 -6 -4 -17 -1 -25 5 -10 8 -15 9 -15 2z"/>
<path d="M4920 7270 c-8 -5 -12 -12 -9 -15 4 -3 12 1 19 10 14 17 11 19 -10 5z"/>
<path d="M4905 7230 c3 -5 8 -10 11 -10 2 0 4 5 4 10 0 6 -5 10 -11 10 -5 0
-7 -4 -4 -10z"/>
<path d="M4940 7225 c7 -9 15 -13 17 -11 7 7 -7 26 -19 26 -6 0 -6 -6 2 -15z"/>
<path d="M4946 7188 c3 -5 10 -6 15 -3 13 9 11 12 -6 12 -8 0 -12 -4 -9 -9z"/>
<path d="M5128 7188 c5 -5 16 -8 23 -6 8 3 3 7 -10 11 -17 4 -21 3 -13 -5z"/>
<path d="M5002 7173 c6 -7 14 -13 18 -13 4 0 10 6 13 13 3 7 -4 12 -18 12 -18
0 -21 -3 -13 -12z"/>
<path d="M5127 7156 c-4 -10 -1 -13 9 -9 7 3 14 9 14 14 0 14 -17 10 -23 -5z"/>
<path d="M5040 7150 c0 -13 40 -13 60 0 11 7 5 10 -22 10 -21 0 -38 -4 -38
-10z"/>
<path d="M5001 7147 c2 -1 13 -9 24 -17 19 -14 19 -14 6 3 -7 9 -18 17 -24 17
-6 0 -8 -1 -6 -3z"/>
<path d="M2263 5080 c-160 -34 -264 -153 -262 -300 1 -99 24 -147 93 -194 37
-25 96 -36 96 -17 0 4 -20 16 -45 25 -54 21 -102 73 -111 122 -20 105 20 216
99 274 83 61 233 81 320 42 47 -21 106 -82 136 -140 97 -191 37 -533 -114
-648 -141 -107 -344 -22 -362 151 -4 37 -10 55 -19 55 -17 0 -19 -58 -4 -111
15 -54 80 -122 142 -149 44 -19 65 -22 142 -18 74 4 101 9 146 32 190 97 290
377 215 603 -44 130 -117 210 -232 253 -63 23 -179 33 -240 20z"/>
<path d="M6880 5081 c-125 -40 -210 -164 -242 -352 -7 -38 -17 -69 -23 -69
-16 1 -88 37 -112 57 -85 72 -82 230 7 293 32 23 39 40 16 40 -24 0 -78 -52
-97 -95 -57 -126 16 -273 157 -315 l41 -12 6 -92 c8 -111 27 -179 70 -242 76
-114 227 -135 334 -48 51 42 112 160 145 281 20 72 26 83 45 83 22 0 23 -3 25
-141 3 -138 4 -142 28 -160 14 -9 49 -21 78 -24 53 -7 54 -7 93 34 37 40 39
41 39 17 0 -39 36 -66 88 -66 39 0 50 5 81 38 24 25 43 60 56 101 10 34 21 64
25 66 9 6 80 -43 80 -55 0 -6 -11 -10 -25 -10 -35 0 -75 -42 -75 -78 0 -122
197 -115 230 8 8 28 17 39 44 48 25 9 40 24 55 56 25 50 26 56 6 56 -8 0 -17
-11 -21 -25 -6 -26 -48 -65 -68 -65 -6 1 -20 20 -31 43 -15 32 -38 54 -95 92
-68 46 -75 53 -78 87 -3 39 23 78 53 78 27 0 55 -38 55 -75 0 -24 5 -35 15
-35 18 0 20 45 5 85 -13 33 -67 57 -112 49 -102 -20 -150 -138 -87 -219 l21
-25 -22 -66 c-25 -75 -62 -125 -80 -108 -8 8 -8 57 -2 175 6 108 6 168 0 177
-11 13 -76 16 -95 4 -6 -4 -15 -57 -21 -125 -9 -101 -14 -124 -40 -169 -19
-34 -37 -54 -51 -56 -34 -5 -43 36 -35 170 8 135 13 127 -98 148 l-56 11 5 52
c6 63 -14 99 -44 81 -27 -16 -63 -74 -63 -100 0 -24 26 -58 50 -66 19 -6 -11
-119 -56 -217 -53 -115 -115 -171 -190 -171 -81 0 -127 98 -140 298 l-7 100
41 7 c57 9 153 57 200 100 115 104 124 283 17 334 -36 17 -110 23 -145 12z
m112 -31 c54 -15 78 -51 78 -117 0 -123 -115 -241 -262 -268 l-36 -7 4 44 c22
196 72 321 139 348 27 12 34 12 77 0z m848 -708 c0 -43 -14 -62 -45 -62 -40 0
-57 39 -35 81 8 13 21 19 45 19 34 0 35 -1 35 -38z"/>
<path d="M2350 5020 c-19 -5 -45 -20 -57 -35 -23 -26 -23 -27 -23 -385 0 -313
2 -361 16 -374 18 -19 75 -21 92 -4 9 9 12 106 12 375 l0 364 26 26 c20 20 23
28 12 34 -15 10 -31 10 -78 -1z"/>
<path d="M5569 5019 c-60 -9 -82 -22 -112 -62 -37 -49 -47 -91 -47 -197 0 -53
-3 -100 -7 -103 -3 -4 -15 1 -26 10 -24 23 -101 22 -145 -1 -46 -24 -73 -84
-79 -175 -9 -135 26 -204 111 -216 58 -9 87 8 112 65 21 48 32 51 36 8 5 -48
44 -72 128 -76 l70 -4 38 38 c20 22 42 48 48 59 11 19 13 17 27 -17 41 -96
173 -102 211 -9 l15 36 10 -30 c15 -39 36 -52 103 -60 49 -6 57 -4 85 19 33
27 67 97 78 160 12 61 -14 41 -40 -32 -39 -107 -74 -143 -102 -106 -12 16 -14
47 -8 176 6 150 6 157 -14 167 -28 16 -67 14 -85 -4 -13 -13 -19 -13 -50 6
-32 18 -41 19 -89 9 -32 -6 -63 -20 -75 -33 -29 -31 -52 -89 -52 -131 0 -20
-9 -60 -21 -91 -42 -112 -133 -166 -158 -94 -6 18 -11 64 -11 103 0 67 3 76
44 143 129 207 166 354 106 418 -27 29 -43 33 -101 24z m81 -44 c21 -25 23
-90 5 -146 -20 -62 -116 -249 -127 -249 -13 0 -9 230 5 296 17 81 39 114 76
114 16 0 34 -7 41 -15z m-292 -331 c38 -26 51 -63 42 -120 -24 -148 -78 -250
-114 -214 -15 15 -20 189 -7 251 12 53 34 99 49 99 4 0 18 -7 30 -16z m558 1
c41 -28 47 -64 29 -160 -26 -140 -70 -213 -102 -169 -19 26 -17 229 2 285 21
59 37 69 71 44z"/>
<path d="M3215 5001 c-41 -25 -70 -60 -83 -99 -6 -18 -14 -126 -17 -240 -7
-204 -7 -208 -37 -270 -23 -48 -38 -67 -64 -80 -26 -12 -39 -13 -52 -6 -25 16
-43 81 -40 138 3 48 4 50 43 63 136 45 117 204 -22 187 -51 -6 -83 -31 -111
-85 -18 -37 -22 -62 -23 -141 -1 -148 31 -193 136 -193 73 0 108 16 141 64
l23 34 6 -26 c12 -45 47 -68 114 -74 76 -7 114 8 152 60 l29 40 0 -31 c0 -60
82 -92 149 -58 15 8 36 31 46 50 20 37 35 46 35 22 0 -24 40 -64 76 -76 62
-21 120 -5 170 46 l44 43 0 -29 c0 -90 162 -92 200 -1 16 38 23 39 37 2 13
-35 49 -60 97 -68 48 -8 78 9 107 61 22 39 23 40 29 17 8 -35 47 -59 107 -67
50 -6 54 -5 86 27 20 20 44 61 57 97 l23 62 31 -19 c39 -25 44 -41 13 -41 -13
0 -37 -10 -52 -22 -24 -19 -27 -26 -22 -65 5 -49 24 -69 73 -79 66 -13 154 51
154 111 0 9 16 23 35 31 36 15 75 65 75 97 0 25 -19 21 -30 -8 -11 -29 -45
-65 -63 -65 -6 0 -23 21 -36 46 -18 34 -43 58 -95 92 -70 47 -71 47 -71 92 0
37 4 46 23 56 13 6 32 10 42 7 21 -6 43 -51 38 -79 -2 -12 3 -19 12 -19 21 0
24 36 6 78 -11 28 -23 38 -53 46 -128 35 -228 -116 -142 -214 l32 -35 -23 -63
c-23 -64 -54 -107 -77 -107 -27 0 -34 51 -27 201 7 142 6 147 -14 158 -28 15
-51 14 -84 -3 -18 -9 -30 -11 -34 -5 -23 37 -143 28 -182 -14 -30 -31 -52 -90
-52 -135 0 -74 -56 -202 -88 -202 -13 0 -14 22 -9 179 6 157 5 180 -9 185 -22
8 -77 7 -90 -2 -6 -4 -14 -52 -17 -110 -6 -112 -31 -184 -81 -231 -27 -25 -70
-31 -89 -12 -17 17 -22 194 -8 257 13 57 39 88 65 78 15 -6 17 -12 20 -53 1
-18 22 -26 31 -11 3 6 1 26 -5 44 -19 59 -95 70 -169 25 -37 -22 -70 -88 -71
-139 -1 -88 -70 -233 -98 -206 -6 7 -4 164 4 258 5 56 3 82 -6 93 -13 16 -76
20 -96 7 -6 -4 -14 -53 -17 -110 -5 -80 -12 -116 -31 -158 -32 -70 -67 -104
-105 -104 -42 0 -51 23 -51 127 0 82 2 91 31 133 50 74 119 217 135 282 18 69
13 114 -17 152 -18 23 -28 26 -77 26 -38 0 -67 -6 -87 -19z m132 -16 c29 -20
36 -58 22 -123 -11 -57 -84 -217 -119 -262 l-20 -25 0 132 c0 161 13 227 50
265 33 32 38 33 67 13z m-328 -343 c17 -40 0 -78 -44 -99 -19 -9 -38 -14 -41
-10 -11 11 7 86 28 112 25 33 43 32 57 -3z m1353 -14 c27 -29 30 -38 25 -78
-13 -106 -39 -192 -68 -223 -28 -31 -30 -31 -44 -13 -20 27 -21 214 0 281 22
74 42 81 87 33z m388 -279 c0 -42 -17 -69 -43 -69 -30 0 -47 18 -47 50 0 35
17 50 57 50 30 0 33 -3 33 -31z"/>
<path d="M3467 4808 c-25 -35 -41 -67 -37 -72 5 -5 32 8 62 29 70 50 80 63 67
86 -18 34 -45 21 -92 -43z"/>
<path d="M3967 4812 c-26 -28 -21 -69 9 -89 24 -15 29 -15 53 -2 16 9 27 25
29 43 7 55 -56 87 -91 48z"/>
<path d="M7534 4822 c-25 -16 -34 -50 -22 -77 22 -48 91 -41 104 10 12 49 -43
94 -82 67z"/>
<path d="M2420 3784 c0 -81 4 -123 10 -119 6 3 10 24 10 46 0 38 1 39 35 39
43 0 85 37 85 74 0 13 -12 38 -26 55 -22 26 -33 31 -70 31 l-44 0 0 -126z
m102 89 c44 -40 10 -113 -54 -113 -28 0 -28 1 -28 65 l0 65 32 0 c17 0 40 -7
50 -17z"/>
<path d="M2592 3783 c1 -71 3 -110 5 -88 3 22 8 44 13 48 15 16 45 -3 70 -43
13 -22 28 -40 33 -40 9 0 4 10 -26 54 l-20 29 21 16 c34 26 45 67 27 101 -19
36 -43 50 -89 50 l-36 0 2 -127z m98 87 c11 -11 20 -31 20 -44 0 -32 -45 -68
-79 -64 -24 3 -26 7 -29 66 l-3 62 36 0 c22 0 43 -8 55 -20z"/>
<path d="M2808 3894 c-36 -19 -58 -63 -58 -115 0 -35 6 -48 39 -80 31 -31 46
-39 75 -39 73 0 136 58 136 126 0 37 -36 94 -70 111 -33 17 -89 16 -122 -3z
m106 -8 c45 -19 66 -52 66 -104 0 -62 -40 -102 -103 -102 -118 0 -156 131 -58
197 40 27 50 28 95 9z"/>
<path d="M3030 3785 l0 -125 35 0 c49 0 98 22 119 55 22 34 23 105 1 138 -21
32 -73 57 -119 57 l-36 0 0 -125z m122 76 c28 -25 33 -36 33 -76 0 -40 -5 -51
-33 -76 -27 -24 -41 -29 -70 -27 l-37 3 -3 103 -3 102 40 0 c31 0 49 -7 73
-29z"/>
<path d="M3230 3816 c0 -87 2 -97 26 -125 32 -38 72 -41 111 -7 27 23 28 29
31 125 3 69 0 101 -7 101 -7 0 -11 -32 -11 -93 0 -110 -13 -137 -64 -137 -55
0 -66 22 -66 133 0 58 -4 97 -10 97 -6 0 -10 -38 -10 -94z"/>
<path d="M3420 3900 c0 -5 14 -10 30 -10 l30 0 0 -116 c0 -74 4 -113 10 -109
6 4 10 53 10 116 l0 109 30 0 c17 0 30 5 30 10 0 6 -30 10 -70 10 -40 0 -70
-4 -70 -10z"/>
<path d="M3635 3900 c-60 -25 -91 -109 -61 -167 25 -49 62 -73 114 -73 38 0
50 5 83 39 34 34 39 44 39 86 0 42 -5 52 -39 86 -32 32 -45 39 -77 38 -22 0
-48 -4 -59 -9z m115 -29 c41 -29 54 -67 41 -112 -16 -52 -53 -79 -108 -79 -63
0 -103 40 -103 102 0 96 92 145 170 89z"/>
<path d="M3930 3784 c0 -81 4 -123 10 -119 6 3 10 30 10 60 l0 54 48 4 47 3
-47 2 -48 2 0 50 0 50 45 0 c25 0 45 5 45 10 0 6 -25 10 -55 10 l-55 0 0 -126z"/>
<path d="M4064 3897 c-2 -7 -3 -62 -2 -123 l3 -109 63 -3 c38 -2 62 1 62 8 0
6 -23 10 -55 10 l-55 0 0 50 0 50 58 2 57 1 -55 6 -55 6 -3 48 -3 47 55 0 c31
0 56 5 56 10 0 16 -120 13 -126 -3z"/>
<path d="M4234 3785 c0 -71 1 -99 3 -62 2 37 2 96 0 130 -2 34 -3 4 -3 -68z"/>
<path d="M4270 3900 c0 -5 14 -10 30 -10 l30 0 0 -116 c0 -74 4 -113 10 -109
6 4 10 53 10 116 l0 109 30 0 c17 0 30 5 30 10 0 6 -30 10 -70 10 -40 0 -70
-4 -70 -10z"/>
<path d="M4452 3876 c-34 -32 -37 -39 -37 -90 0 -49 4 -59 32 -87 24 -25 42
-33 82 -37 49 -4 53 -3 91 36 35 35 40 45 40 87 0 42 -5 52 -39 86 -34 34 -44
39 -85 39 -39 0 -52 -6 -84 -34z m163 -17 c25 -24 30 -37 30 -75 0 -39 -5 -50
-33 -75 -46 -41 -111 -41 -153 0 -53 54 -35 146 35 177 41 18 84 8 121 -27z"/>
<path d="M4829 3887 c-48 -32 -68 -91 -48 -143 26 -69 107 -103 174 -72 14 6
25 15 25 20 0 11 -17 10 -25 -2 -8 -13 -91 -13 -116 0 -49 27 -63 127 -24 170
30 33 78 43 120 25 43 -17 45 -18 45 -7 0 14 -48 32 -84 32 -18 0 -48 -10 -67
-23z"/>
<path d="M5060 3888 c-49 -33 -66 -84 -49 -140 27 -82 118 -113 191 -63 65 44
73 121 20 185 -23 27 -36 33 -77 37 -41 4 -56 0 -85 -19z m103 1 c84 -23 103
-131 34 -191 -27 -24 -105 -24 -133 0 -65 52 -55 149 18 185 40 20 34 19 81 6z"/>
<path d="M5280 3785 c0 -156 18 -169 22 -15 l3 110 43 -56 43 -55 47 58 47 58
6 -115 5 -115 2 128 c1 76 -2 127 -8 127 -5 0 -28 -25 -51 -55 -23 -30 -45
-55 -48 -55 -4 0 -25 25 -47 55 -21 30 -45 55 -51 55 -10 0 -13 -32 -13 -125z"/>
<path d="M5652 3795 c-24 -64 -42 -121 -39 -128 2 -7 13 13 24 43 21 55 21 55
63 55 42 0 43 -1 63 -52 11 -29 23 -53 28 -53 5 0 -9 48 -30 108 -51 139 -52
142 -60 142 -3 0 -26 -52 -49 -115z m66 42 c18 -49 15 -56 -18 -55 -16 1 -30
3 -30 6 0 15 24 82 30 82 3 0 11 -15 18 -33z"/>
<path d="M5810 3785 c0 -158 18 -168 22 -13 l3 112 43 -58 44 -57 41 55 c23
30 45 55 49 56 4 0 9 -51 11 -112 l3 -113 2 128 c1 70 -2 127 -7 127 -5 0 -27
-25 -50 -55 -23 -30 -45 -55 -49 -55 -4 0 -25 25 -47 55 -22 30 -46 54 -52 55
-10 0 -13 -31 -13 -125z"/>
<path d="M6119 3893 c-79 -49 -78 -170 1 -217 39 -23 91 -20 131 7 46 31 61
63 55 117 -6 62 -57 110 -118 110 -24 0 -55 -8 -69 -17z m105 -7 c45 -19 66
-52 66 -104 0 -35 -6 -49 -29 -73 -41 -41 -107 -41 -153 -1 -27 25 -31 36 -31
75 0 52 19 81 68 103 38 17 39 17 79 0z"/>
<path d="M6340 3783 c0 -69 3 -123 8 -119 4 4 7 24 7 44 1 30 5 38 22 40 15 2
28 -9 49 -42 16 -25 32 -46 37 -46 11 0 9 7 -18 46 l-26 38 28 22 c21 16 27
30 27 59 0 50 -39 85 -95 85 l-39 0 0 -127z m102 90 c22 -20 24 -66 2 -87 -17
-18 -57 -30 -76 -24 -12 4 -21 104 -11 121 8 13 66 7 85 -10z"/>
<path d="M6592 3788 l3 -123 63 -3 c43 -2 62 0 57 7 -3 6 -28 11 -56 11 l-49
0 0 50 0 49 58 4 57 3 -57 2 -58 2 0 50 0 50 49 0 c28 0 53 5 56 10 4 6 -18
10 -60 10 l-66 0 3 -122z"/>
<path d="M6871 3794 c-23 -63 -40 -121 -38 -127 2 -7 13 13 24 43 l21 55 43 0
44 0 19 -54 c11 -30 22 -49 24 -42 5 14 -77 241 -87 241 -4 0 -27 -52 -50
-116z m69 41 c14 -41 8 -53 -22 -51 -25 1 -26 5 -14 54 10 41 22 41 36 -3z"/>
<path d="M7042 3783 c1 -71 3 -100 5 -65 l4 62 47 2 47 1 -45 6 -45 6 -3 48
-3 47 45 0 c25 0 48 5 51 10 4 6 -15 10 -49 10 l-56 0 2 -127z"/>
<path d="M7170 3785 l0 -125 60 0 c33 0 60 4 60 10 0 6 -22 10 -50 10 l-50 0
0 49 0 50 53 4 52 3 -52 2 -53 2 0 50 0 50 49 0 c28 0 53 5 56 10 4 6 -18 10
-59 10 l-66 0 0 -125z"/>
<path d="M7320 3900 c0 -5 14 -10 30 -10 l30 0 0 -116 c0 -74 4 -113 10 -109
6 4 10 53 10 116 l0 109 30 0 c17 0 30 5 30 10 0 6 -30 10 -70 10 -40 0 -70
-4 -70 -10z"/>
<path d="M7516 3889 c-58 -45 -71 -114 -33 -170 39 -58 98 -74 161 -44 59 28
85 115 52 173 -33 60 -128 82 -180 41z m149 -30 c25 -25 30 -37 29 -76 -1 -39
-6 -51 -33 -75 -45 -40 -111 -40 -152 1 -53 54 -35 146 35 177 41 18 84 8 121
-27z"/>
</g>
</svg>
