<?xml version="1.0" standalone="no"?>
<!DOCTYPE svg PUBLIC "-//W3C//DTD SVG 20010904//EN"
 "http://www.w3.org/TR/2001/REC-SVG-20010904/DTD/svg10.dtd">
<svg version="1.0" xmlns="http://www.w3.org/2000/svg"
 width="1080.000000pt" height="1080.000000pt" viewBox="0 0 1080.000000 1080.000000"
 preserveAspectRatio="xMidYMid meet">

<g transform="translate(0.000000,1080.000000) scale(0.100000,-0.100000)"
fill="#000000" stroke="none">
<path d="M6080 7164 c-83 -17 -232 -91 -290 -143 l-45 -41 195 3 c186 2 197 1
242 -21 63 -31 130 -92 183 -166 50 -70 112 -194 121 -242 l6 -32 46 35 c115
88 276 125 382 88 l42 -15 -6 28 c-4 15 -27 70 -53 122 -39 81 -60 109 -137
185 -151 151 -309 215 -521 214 -55 0 -129 -7 -165 -15z"/>
<path d="M5687 6922 c-140 -170 -200 -383 -165 -587 56 -333 307 -573 646
-620 l43 -5 -8 37 c-13 60 -7 202 11 271 36 143 101 271 206 410 59 78 59 79
48 121 -17 65 -40 75 -156 68 -130 -9 -252 6 -318 38 -64 31 -166 137 -214
223 -55 99 -50 96 -93 44z"/>
<path d="M6495 6487 c-100 -106 -204 -305 -236 -452 -16 -76 -16 -227 0 -283
l12 -44 52 7 c244 31 449 164 566 368 27 48 71 157 71 177 0 4 -20 15 -44 24
-58 22 -120 70 -233 178 -51 48 -100 88 -110 88 -10 0 -45 -28 -78 -63z"/>
<path d="M6425 5691 c-11 -5 -28 -17 -37 -28 -32 -35 -116 -227 -198 -453 -82
-222 -114 -300 -127 -300 -31 0 -62 80 -137 350 -64 234 -114 332 -172 338
-36 4 -105 -44 -140 -96 -26 -37 -28 -57 -54 -407 -31 -436 -42 -705 -38 -950
3 -258 5 -266 71 -296 53 -23 69 -24 98 0 22 18 23 22 30 322 12 456 47 990
68 1027 7 12 19 -16 46 -103 113 -369 115 -376 150 -413 30 -33 39 -37 83 -37
84 0 91 11 233 353 128 307 171 402 180 402 13 0 11 -56 -16 -495 -32 -520
-48 -950 -40 -1047 5 -55 12 -81 25 -93 20 -18 96 -23 112 -7 6 6 11 106 13
248 1 132 14 417 29 634 14 217 31 520 38 673 11 269 11 278 -8 303 -39 53
-160 96 -209 75z"/>
<path d="M1051 5636 c-46 -56 -111 -985 -98 -1406 11 -339 32 -421 120 -467
42 -21 142 -19 203 5 56 21 198 122 208 148 16 41 0 84 -31 84 -7 0 -47 -27
-88 -59 -90 -72 -138 -91 -165 -66 -38 34 -45 132 -44 605 1 437 14 724 45
970 7 52 9 107 6 122 -13 51 -128 98 -156 64z"/>
<path d="M3903 4984 c-71 -36 -184 -270 -294 -609 -86 -263 -103 -305 -121
-305 -17 0 -3 331 21 490 31 200 30 211 -21 254 -45 39 -99 60 -138 54 -29 -4
-27 7 -55 -364 -22 -298 -18 -514 13 -595 24 -60 70 -111 116 -129 37 -14 91
3 111 33 8 12 52 148 99 302 126 416 241 716 277 723 24 4 29 -26 29 -184 0
-145 -8 -268 -36 -576 -9 -97 -13 -193 -10 -213 13 -66 94 -135 161 -135 35 0
44 28 38 120 -3 41 4 172 16 290 30 317 45 585 37 672 -8 83 -28 124 -78 161
-37 27 -122 33 -165 11z"/>
<path d="M6931 4981 c-73 -19 -182 -199 -226 -372 -116 -463 21 -842 305 -844
53 0 73 5 112 27 79 47 139 141 180 285 30 103 33 341 5 443 -40 150 -126 269
-220 305 l-46 17 5 42 c4 26 1 47 -8 58 -18 24 -79 46 -107 39z m130 -243 c73
-143 93 -602 33 -771 -49 -140 -158 -108 -203 60 -19 71 -30 271 -20 371 15
141 69 310 117 365 25 29 50 21 73 -25z"/>
<path d="M8224 4942 c-8 -5 -13 -162 -16 -531 l-5 -524 26 -29 c31 -34 92 -52
117 -34 26 19 33 92 34 356 0 293 1 294 129 435 164 180 209 195 346 118 52
-29 89 -28 93 4 4 24 -58 76 -136 115 -100 49 -214 15 -345 -103 l-67 -61 0
54 c0 104 -29 155 -108 189 -49 21 -52 22 -68 11z"/>
<path d="M1666 4919 c-39 -23 -98 -192 -132 -379 -25 -135 -26 -440 -1 -529
25 -91 65 -159 111 -190 52 -34 141 -36 201 -5 43 22 110 105 159 195 l29 54
12 -55 c21 -102 58 -156 125 -183 40 -16 97 -6 107 19 3 8 -8 43 -26 76 -37
72 -39 125 -16 338 20 179 39 289 77 444 23 94 29 133 21 145 -27 43 -158 8
-189 -51 -8 -16 -48 -145 -89 -286 -109 -384 -166 -523 -227 -560 -26 -15 -29
-15 -55 4 -55 40 -68 85 -67 224 1 140 23 282 83 539 37 160 38 163 19 181
-31 29 -107 39 -142 19z"/>
<path d="M7508 4920 c-73 -45 -146 -330 -155 -607 -10 -293 35 -446 150 -504
77 -40 199 -6 256 72 14 18 44 66 67 107 41 72 54 77 54 19 0 -34 44 -119 77
-150 37 -34 78 -46 120 -35 45 12 50 38 16 89 -28 42 -28 44 -27 193 1 179 28
374 81 588 40 166 39 178 -26 178 -54 0 -123 -38 -143 -80 -9 -19 -38 -109
-63 -200 -100 -359 -161 -532 -211 -597 -50 -66 -88 -66 -132 0 -26 40 -27 44
-26 186 0 157 11 235 70 494 52 225 51 212 20 232 -32 21 -105 30 -128 15z"/>
<path d="M2856 4889 c-152 -37 -322 -191 -414 -374 -60 -120 -77 -196 -77
-340 1 -113 4 -138 24 -190 34 -84 117 -167 193 -190 76 -24 118 -15 177 40
59 56 101 126 169 283 30 70 55 128 55 129 1 1 2 -80 2 -180 0 -176 1 -184 25
-226 31 -56 82 -83 150 -83 100 1 111 16 72 99 l-27 58 -3 310 c-2 179 1 361
7 430 17 177 2 210 -86 187 -69 -19 -111 -54 -118 -100 -16 -116 -92 -390
-141 -516 -86 -218 -152 -326 -199 -326 -19 0 -30 12 -55 64 -62 126 -51 298
30 466 82 169 179 293 278 357 56 36 83 76 65 94 -15 15 -82 20 -127 8z"/>
<path d="M4668 4889 c-150 -35 -328 -193 -418 -369 -66 -129 -97 -295 -80
-421 13 -100 69 -211 128 -256 56 -42 137 -68 187 -59 80 15 178 153 265 371
17 44 33 82 35 84 2 2 3 -73 2 -165 -1 -143 1 -175 16 -209 35 -79 82 -108
170 -107 90 1 103 22 67 98 -41 83 -50 327 -29 720 7 116 9 223 5 237 -4 17
-15 29 -32 33 -62 16 -174 -55 -174 -111 0 -40 -67 -304 -104 -413 -66 -191
-137 -338 -190 -395 -40 -43 -65 -33 -101 37 -26 52 -30 71 -33 161 -5 118 11
192 63 302 75 160 177 294 270 354 91 59 107 100 43 113 -36 7 -41 7 -90 -5z"/>
<path d="M9436 4889 c-163 -40 -356 -225 -436 -418 -67 -162 -79 -359 -30
-486 46 -122 185 -219 286 -201 79 15 176 145 254 340 56 143 55 144 55 -57 0
-175 1 -184 25 -227 32 -57 81 -83 157 -82 41 0 61 5 75 19 18 19 18 20 -8 77
-22 49 -27 79 -35 203 -9 142 2 599 17 669 8 39 -12 113 -33 121 -24 9 -103
-15 -140 -43 -23 -17 -34 -36 -38 -62 -14 -85 -69 -312 -97 -396 -39 -116
-108 -278 -148 -347 -73 -124 -103 -130 -152 -32 -32 65 -33 73 -33 183 0 127
11 172 73 295 80 161 175 281 270 342 56 36 83 76 65 94 -15 15 -82 20 -127 8z"/>
<path d="M3550 3310 c0 -173 1 -180 20 -180 19 0 20 7 20 158 l1 157 82 -157
c80 -154 83 -158 115 -158 l32 0 0 180 c0 173 -1 180 -20 180 -19 0 -20 -7
-20 -157 l-1 -158 -82 157 c-80 154 -83 158 -114 158 l-33 0 0 -180z"/>
<path d="M3910 3358 c0 -187 23 -228 133 -228 55 0 101 20 119 53 7 13 14 77
16 165 l4 142 -26 0 -26 0 0 -140 c0 -136 -1 -142 -25 -165 -32 -33 -84 -33
-122 -1 -28 24 -28 25 -31 165 -4 131 -5 141 -23 141 -18 0 -19 -9 -19 -132z"/>
<path d="M4230 3475 c0 -10 16 -15 63 -17 l62 -3 3 -162 c2 -154 4 -163 22
-163 18 0 20 9 22 163 l3 162 63 3 c46 2 62 7 62 17 0 13 -26 15 -150 15 -124
0 -150 -2 -150 -15z"/>
<path d="M4580 3310 c0 -173 1 -180 20 -180 18 0 20 7 20 75 l0 75 59 0 c70 0
79 -8 95 -87 9 -49 15 -59 34 -61 19 -3 23 0 18 15 -3 10 -10 42 -16 72 -6 30
-17 62 -25 71 -14 16 -13 19 9 34 55 35 39 133 -25 155 -18 6 -67 11 -110 11
l-79 0 0 -180z m184 124 c9 -8 16 -31 16 -49 0 -47 -29 -65 -102 -65 l-58 0 0
65 0 65 64 0 c45 0 69 -5 80 -16z"/>
<path d="M4900 3310 c0 -173 1 -180 20 -180 19 0 20 7 20 180 0 173 -1 180
-20 180 -19 0 -20 -7 -20 -180z"/>
<path d="M5095 3471 c-40 -24 -60 -49 -74 -90 -28 -85 0 -194 61 -231 87 -53
226 -2 228 83 0 28 -39 21 -46 -8 -14 -57 -84 -81 -144 -50 -41 21 -60 63 -60
135 0 72 19 114 60 135 46 24 87 19 121 -14 16 -16 29 -37 29 -45 0 -10 9 -16
26 -16 22 0 24 3 19 23 -10 33 -39 70 -66 84 -37 19 -119 16 -154 -6z"/>
<path d="M5399 3348 c0 -79 -1 -160 -2 -181 -2 -32 1 -37 21 -37 22 0 22 0 22
180 0 173 -1 180 -20 180 -19 0 -20 -7 -21 -142z"/>
<path d="M5581 3468 c-54 -36 -75 -81 -75 -158 0 -116 59 -180 164 -180 103 0
162 66 162 180 0 113 -51 172 -155 178 -52 3 -67 0 -96 -20z m164 -41 c87 -87
38 -267 -73 -267 -71 0 -122 63 -122 150 0 128 115 197 195 117z"/>
<path d="M5910 3310 c0 -173 1 -180 20 -180 18 0 20 8 22 155 l3 155 81 -152
82 -153 37 -3 38 -3 -6 53 c-4 29 -7 110 -7 181 0 120 -1 127 -20 127 -18 0
-20 -8 -22 -151 l-3 -152 -80 152 c-78 148 -80 151 -112 151 l-33 0 0 -180z"/>
<path d="M6280 3310 c0 -173 1 -180 20 -180 19 0 20 7 20 180 0 173 -1 180
-20 180 -19 0 -20 -7 -20 -180z"/>
<path d="M6439 3461 c-33 -33 -39 -82 -14 -118 8 -12 43 -30 76 -42 73 -24 99
-45 99 -78 0 -60 -88 -85 -135 -38 -14 13 -25 29 -25 35 0 5 -11 10 -25 10
-29 0 -30 -2 -10 -40 33 -64 147 -82 204 -34 26 22 31 33 31 70 0 58 -28 87
-104 109 -68 20 -95 52 -78 90 22 49 105 44 130 -8 8 -16 21 -27 33 -27 22 0
24 9 7 45 -16 35 -57 55 -113 55 -38 0 -52 -5 -76 -29z"/>
<path d="M6680 3475 c0 -10 16 -15 63 -17 l62 -3 3 -162 c2 -155 4 -163 22
-163 19 0 20 7 20 165 l0 165 65 0 c51 0 65 3 65 15 0 13 -23 15 -150 15 -124
0 -150 -2 -150 -15z"/>
<path d="M7112 3463 c-52 -145 -112 -317 -112 -324 0 -5 9 -9 19 -9 15 0 24
15 41 65 l22 66 66 -3 66 -3 20 -62 c17 -54 23 -63 44 -63 19 0 23 4 18 17 -4
9 -32 90 -63 180 -54 158 -56 163 -83 163 -21 0 -30 -7 -38 -27z m62 -85 c9
-32 19 -64 22 -73 5 -12 -4 -15 -49 -15 l-55 0 26 80 c14 44 29 76 33 72 4 -4
14 -33 23 -64z"/>
<path d="M913 3294 c-3 -8 -1 -20 4 -25 5 -5 482 -8 1234 -7 1216 3 1224 3
1224 23 0 20 -8 20 -1228 23 -1108 2 -1228 1 -1234 -14z"/>
<path d="M7431 3301 c-8 -5 -11 -16 -8 -25 6 -15 117 -16 1232 -16 1115 0
1226 1 1232 16 3 9 0 20 -8 25 -18 12 -2430 12 -2448 0z"/>
</g>
</svg>
