<?xml version="1.0" standalone="no"?>
<!DOCTYPE svg PUBLIC "-//W3C//DTD SVG 20010904//EN"
 "http://www.w3.org/TR/2001/REC-SVG-20010904/DTD/svg10.dtd">
<svg version="1.0" xmlns="http://www.w3.org/2000/svg"
 width="1024.000000pt" height="1024.000000pt" viewBox="0 0 1024.000000 1024.000000"
 preserveAspectRatio="xMidYMid meet">

<g transform="translate(0.000000,1024.000000) scale(0.100000,-0.100000)"
fill="#c53d6a" stroke="none">
<path d="M5362 9023 c-29 -14 -71 -46 -92 -71 l-39 -44 -43 36 c-61 52 -134
72 -207 56 -74 -16 -99 -30 -144 -79 -117 -126 -103 -254 49 -481 88 -131 133
-187 249 -308 95 -100 102 -103 138 -61 16 19 98 104 181 189 84 85 165 173
181 195 17 22 33 42 36 45 3 3 20 31 38 62 42 76 65 169 57 231 -23 194 -234
315 -404 230z"/>
<path d="M4843 7493 c4 -49 22 -232 40 -408 l32 -320 65 -22 c36 -12 87 -24
114 -28 l49 -8 -6 84 c-4 46 -9 199 -12 339 -3 140 -8 284 -11 320 l-6 65 -82
0 c-76 0 -87 3 -135 33 -29 17 -53 32 -55 32 -1 0 2 -39 7 -87z"/>
<path d="M5685 7520 c-4 -6 -30 -22 -58 -37 -41 -21 -69 -27 -127 -29 l-75 -3
-7 -103 c-7 -94 -29 -383 -44 -567 l-6 -74 49 6 c26 3 82 16 123 29 l75 24 17
134 c40 308 74 630 67 630 -4 0 -11 -5 -14 -10z"/>
<path d="M4728 6317 c-50 -39 -118 -120 -192 -232 -164 -247 -265 -492 -297
-720 -13 -97 -30 -122 -143 -211 -158 -126 -278 -137 -327 -31 -10 23 -19 49
-19 57 1 9 28 27 68 45 150 67 310 204 363 311 28 58 32 135 8 159 -40 41
-166 34 -271 -13 -198 -89 -374 -363 -354 -552 14 -141 70 -229 163 -256 138
-40 277 32 452 234 54 62 71 74 71 49 0 -29 62 -137 95 -166 19 -17 53 -36 75
-42 34 -10 46 -10 79 6 44 19 158 132 236 234 l50 63 11 -39 c40 -138 125
-204 224 -174 79 23 148 88 292 274 16 22 17 22 23 2 22 -68 55 -122 100 -165
89 -83 164 -87 272 -13 56 37 155 138 213 216 19 25 38 47 41 47 3 0 11 -22
18 -49 24 -94 96 -161 173 -161 77 1 190 86 286 218 44 59 62 74 62 51 0 -17
62 -101 105 -142 33 -32 45 -38 69 -33 54 11 138 93 255 250 55 74 58 72 40
-34 -13 -80 -4 -132 28 -170 67 -80 159 -33 314 162 73 91 73 91 81 62 12 -48
73 -110 140 -143 87 -44 169 -44 259 1 108 54 381 344 378 402 -1 12 -4 31 -7
44 -7 21 -10 18 -52 -34 -69 -87 -203 -209 -261 -238 -31 -15 -70 -26 -93 -26
l-41 0 30 18 c78 48 145 141 177 246 27 88 21 182 -17 281 -15 39 -30 90 -33
114 -9 59 -28 69 -86 47 -53 -20 -74 -47 -83 -102 -4 -25 -30 -74 -71 -134
-244 -357 -423 -528 -487 -464 -29 30 -14 107 44 230 28 59 51 116 51 128 0
12 -11 38 -25 58 -14 20 -25 40 -25 44 0 5 14 22 31 40 36 37 32 53 -23 99
-42 35 -81 31 -196 -25 -263 -126 -482 -340 -526 -516 -14 -52 -23 -66 -85
-125 -83 -78 -126 -101 -183 -97 -50 4 -77 34 -85 96 -5 40 -2 45 66 129 186
228 206 423 36 344 -49 -23 -68 -40 -130 -116 -64 -80 -125 -207 -132 -279 -6
-56 -7 -58 -94 -140 -173 -165 -328 -204 -384 -96 -37 71 -11 131 108 248 l74
74 11 -31 c26 -74 111 -17 175 119 53 110 40 199 -30 213 -66 12 -198 -58
-311 -167 -103 -98 -159 -192 -192 -322 -8 -32 -28 -59 -93 -120 -106 -102
-169 -132 -232 -108 -24 10 -45 58 -45 104 0 35 9 52 71 128 149 184 193 352
93 352 -70 0 -149 -64 -229 -185 -66 -99 -84 -140 -99 -226 -10 -59 -17 -72
-71 -133 -106 -120 -169 -156 -224 -126 -23 12 -57 91 -66 152 l-7 47 86 96
c235 264 364 574 337 806 -11 96 -41 111 -113 56z m-23 -275 c-32 -134 -75
-242 -134 -340 -50 -84 -121 -176 -129 -168 -11 12 65 233 118 341 59 120 157
281 165 273 3 -2 -6 -50 -20 -106z m3031 -119 c28 -88 25 -177 -8 -233 -14
-25 -38 -56 -52 -69 l-26 -25 -38 36 c-45 44 -74 59 -113 60 -16 1 -29 3 -29
5 0 2 40 52 88 111 49 59 101 124 116 144 16 21 32 36 36 33 4 -2 15 -30 26
-62z m-657 20 c-96 -162 -201 -302 -293 -395 -87 -88 -135 -102 -150 -43 -17
68 54 183 176 280 67 54 274 195 285 195 2 0 -5 -17 -18 -37z m-3023 -348 c12
-31 -19 -85 -85 -147 -72 -68 -207 -165 -217 -156 -8 9 39 97 80 151 43 56
104 114 155 144 42 27 59 29 67 8z"/>
<path d="M6362 6289 c-72 -47 -110 -172 -66 -220 24 -27 85 -21 120 12 33 31
74 116 74 154 0 71 -61 97 -128 54z"/>
<path d="M5290 6261 c-23 -4 -38 -14 -46 -31 -7 -14 -35 -72 -64 -129 -57
-117 -56 -132 9 -112 32 9 49 24 85 74 57 81 99 162 94 184 -4 20 -25 24 -78
14z"/>
<path d="M2830 6185 c-309 -53 -600 -199 -671 -338 -25 -47 -45 -179 -35 -229
11 -60 33 -59 208 15 84 36 171 71 193 78 l40 14 -37 3 c-20 2 -61 -1 -90 -7
-29 -5 -55 -8 -57 -6 -6 6 191 101 256 123 70 24 143 42 143 35 0 -2 -50 -88
-112 -191 -382 -641 -460 -965 -241 -998 103 -15 319 39 488 123 281 139 498
342 604 563 91 190 94 393 7 575 -60 127 -160 205 -308 240 -77 18 -282 18
-388 0z m371 -289 c169 -30 259 -116 259 -248 0 -128 -59 -247 -190 -379 -189
-192 -433 -311 -667 -326 -142 -9 -149 6 -79 175 66 161 133 298 244 500 72
132 102 197 107 232 l7 49 56 4 c124 7 190 6 263 -7z"/>
<path d="M5850 5073 c-232 -62 -614 -348 -806 -603 -204 -270 -241 -542 -94
-689 67 -67 138 -94 250 -94 256 -2 544 188 877 578 l111 130 83 21 c46 12 85
21 87 19 2 -1 -22 -35 -52 -75 -67 -90 -96 -162 -96 -241 0 -67 17 -108 54
-133 65 -42 133 -9 273 133 l91 93 6 -39 c16 -94 79 -158 154 -158 67 1 116
28 205 116 l78 77 13 -33 c17 -40 76 -98 124 -121 61 -30 147 -30 212 -2 73
33 189 126 278 225 66 74 72 84 72 124 l0 42 -82 -81 c-100 -98 -121 -114
-193 -152 -56 -29 -108 -39 -119 -21 -3 5 8 14 24 21 43 18 112 96 146 165 26
53 29 70 29 150 -1 66 -7 110 -24 162 -12 40 -20 76 -17 81 3 5 -1 17 -8 27
-12 17 -18 18 -53 7 -48 -14 -68 -35 -88 -91 -30 -86 -365 -456 -452 -500 -52
-26 -103 -27 -134 -2 -18 15 -23 28 -23 69 0 49 2 53 71 125 106 112 163 220
143 272 -8 20 -16 25 -46 25 -50 0 -96 -24 -150 -79 -82 -82 -148 -194 -160
-272 -5 -32 -18 -50 -68 -96 -88 -80 -131 -107 -160 -99 -70 17 -19 162 110
307 48 54 52 71 29 124 -21 51 -47 57 -178 41 -62 -7 -113 -13 -115 -11 -1 1
2 13 7 27 5 14 6 31 1 38 -34 56 -229 -153 -230 -246 0 -12 9 -33 20 -47 11
-14 20 -29 20 -34 0 -20 -185 -195 -283 -269 -248 -184 -459 -254 -577 -194
-126 64 -102 293 53 525 116 173 313 365 497 482 113 73 169 87 184 47 15 -39
-87 -196 -189 -293 -49 -47 -58 -51 -68 -37 -11 14 -19 11 -71 -29 -146 -109
-226 -198 -226 -249 0 -34 37 -85 76 -103 35 -17 36 -17 97 15 154 79 374 296
472 464 152 258 64 428 -185 361z m1549 -567 c16 -63 14 -142 -5 -181 -8 -19
-31 -50 -50 -69 l-35 -36 -42 45 c-26 27 -56 47 -75 51 -18 4 -32 9 -32 11 0
11 214 232 220 228 4 -3 13 -25 19 -49z"/>
<path d="M7034 4961 c-51 -31 -78 -78 -79 -135 0 -44 3 -52 27 -65 25 -15 30
-14 62 3 71 38 119 154 81 196 -23 25 -51 25 -91 1z"/>
<path d="M3483 4728 c-29 -31 -126 -198 -204 -348 -35 -69 -64 -126 -65 -128
-1 -2 -14 4 -28 13 -70 46 -263 -43 -409 -189 -71 -71 -92 -117 -90 -198 1
-137 76 -289 134 -275 23 6 159 136 248 237 l30 35 1 -95 c0 -114 13 -165 45
-186 54 -35 127 9 265 162 34 38 66 70 69 72 4 1 16 -17 27 -40 10 -23 36 -64
57 -90 29 -37 44 -48 66 -48 43 0 126 67 240 195 l53 60 -8 -45 c-5 -25 -9
-76 -9 -113 0 -63 2 -71 28 -93 67 -58 137 -14 338 210 80 90 89 104 89 139
l0 39 -70 -66 c-119 -112 -188 -146 -224 -110 -26 25 -14 72 50 190 30 56 54
109 54 118 0 9 -9 35 -20 56 l-20 40 31 28 c31 28 31 28 15 60 -29 56 -74 65
-167 33 -66 -23 -186 -82 -259 -129 -116 -74 -252 -228 -267 -302 -4 -21 -29
-53 -82 -101 -130 -121 -161 -124 -161 -17 0 79 25 198 59 278 15 36 65 128
110 205 167 284 195 364 142 406 -30 25 -43 24 -68 -3z m526 -559 c-73 -103
-196 -245 -260 -298 -91 -77 -134 -79 -132 -8 3 90 95 178 328 314 50 29 94
52 98 53 5 0 -11 -27 -34 -61z m-856 -86 c-13 -38 -39 -71 -122 -154 -58 -58
-126 -120 -150 -138 -39 -27 -47 -30 -59 -17 -12 11 -12 23 -3 67 21 99 71
148 244 240 51 27 95 49 99 49 4 0 0 -21 -9 -47z"/>
<path d="M7640 3598 c-62 -127 -70 -157 -45 -178 17 -14 35 -5 35 18 0 15 28
70 111 220 21 37 22 44 9 52 -37 24 -49 11 -110 -112z"/>
<path d="M7430 3605 c-48 -49 -39 -60 16 -18 35 26 35 26 41 5 7 -28 33 -29
33 -1 0 27 -18 59 -33 59 -7 0 -33 -20 -57 -45z"/>
<path d="M4961 3514 c-29 -21 -151 -208 -177 -272 -22 -56 -68 -112 -91 -112
-20 0 -16 18 17 77 32 56 33 93 3 93 -9 0 -50 -35 -92 -77 -66 -69 -72 -68
-24 2 35 52 -12 63 -51 12 -15 -19 -26 -39 -26 -45 0 -6 -14 -27 -31 -47 -22
-25 -39 -35 -60 -35 -40 0 -38 28 6 86 40 53 46 84 14 84 -26 0 -72 -47 -89
-92 -16 -40 -68 -98 -88 -98 -21 0 -8 56 24 97 17 23 23 40 19 54 -6 19 -12
20 -51 14 -29 -4 -44 -2 -44 4 0 21 -29 10 -55 -21 -20 -23 -25 -39 -21 -59 4
-22 -1 -34 -26 -58 -34 -33 -68 -41 -68 -16 0 9 9 33 19 54 13 24 16 42 11 51
-5 9 -4 20 2 28 8 10 7 17 -5 29 -15 15 -19 15 -59 -1 -61 -23 -134 -80 -154
-118 -44 -88 -137 -138 -164 -88 -18 34 28 86 71 81 22 -2 59 45 59 74 0 35
-28 38 -76 10 -48 -28 -89 -76 -99 -117 -9 -37 12 -95 41 -115 31 -20 67 -6
115 43 l33 34 26 -32 c31 -36 47 -32 99 27 l32 37 -3 -34 c-5 -75 31 -77 98
-5 27 28 61 66 74 83 14 17 37 34 52 38 l27 6 -26 -51 c-21 -40 -25 -56 -17
-77 15 -44 49 -41 100 9 27 27 44 37 44 28 0 -8 9 -25 21 -38 26 -27 51 -21
99 25 l36 34 11 -30 c6 -17 16 -30 21 -30 6 0 32 29 58 65 52 70 65 78 38 22
-10 -21 -14 -45 -10 -61 10 -40 43 -33 98 21 46 45 48 46 48 21 0 -14 6 -31
14 -37 12 -10 24 0 67 58 55 73 72 85 44 31 -9 -17 -15 -46 -13 -63 5 -48 34
-46 91 3 28 25 47 36 47 27 0 -23 34 -47 67 -47 19 0 38 9 53 25 13 14 31 25
40 25 17 0 80 56 80 71 0 14 -7 11 -36 -16 -32 -29 -49 -33 -35 -6 14 26 16
81 3 114 -24 57 -123 14 -163 -72 -27 -57 -57 -91 -81 -91 -25 0 -23 14 13 77
25 43 29 57 19 68 -7 8 -18 15 -24 15 -6 0 -41 -32 -78 -71 -78 -82 -88 -76
-24 14 66 92 156 238 156 252 0 20 -26 25 -49 9z m179 -260 c-6 -14 -10 -38
-10 -54 0 -20 -8 -35 -25 -46 -55 -36 -62 27 -9 86 42 46 58 51 44 14z m-1125
-81 c-65 -88 -104 -118 -120 -93 -11 18 22 57 77 95 67 45 77 44 43 -2z"/>
<path d="M7405 3511 c-41 -25 -59 -47 -87 -105 -18 -39 -33 -55 -69 -73 -49
-26 -74 -23 -82 8 -8 30 40 82 70 75 18 -5 27 0 43 26 52 85 -8 106 -91 31
-22 -20 -49 -53 -59 -72 -19 -38 -57 -78 -65 -69 -3 3 -1 17 5 32 13 36 13 86
-1 86 -6 0 -9 7 -5 15 9 23 -40 31 -80 12 -37 -18 -94 -90 -94 -119 0 -19 -45
-47 -56 -35 -4 4 3 30 15 58 16 36 19 55 12 62 -16 16 -50 -19 -76 -78 -29
-63 -72 -106 -85 -85 -14 21 -13 23 20 69 17 23 35 53 40 66 8 20 6 25 -13 31
-16 5 -27 -1 -49 -27 -50 -60 -59 -139 -21 -181 24 -26 45 -22 83 17 26 26 39
33 57 29 14 -4 33 0 48 10 14 9 25 12 25 6 0 -16 47 -60 63 -60 12 0 69 33
138 81 l26 17 16 -34 c21 -43 58 -54 104 -28 19 10 43 29 53 42 l19 23 12 -23
c16 -31 28 -38 65 -38 37 0 86 32 127 82 38 48 29 60 -15 19 -43 -40 -85 -58
-107 -44 -31 20 -23 40 23 63 54 26 96 72 96 106 0 21 -4 24 -37 24 -21 0 -51
-8 -68 -19z m65 -19 c0 -21 -85 -90 -97 -78 -7 7 71 86 86 86 6 0 11 -4 11 -8z
m-464 -126 c-9 -45 -18 -62 -34 -69 -30 -13 -47 3 -38 37 6 23 74 102 81 94 1
-2 -3 -30 -9 -62z"/>
<path d="M6329 3435 c-57 -30 -103 -75 -129 -125 -20 -39 -54 -70 -77 -70 -23
0 -14 46 17 85 17 21 28 45 25 53 -3 7 -5 16 -5 18 0 2 -23 4 -51 4 -31 0 -48
4 -44 10 3 6 -1 10 -9 10 -26 0 -67 -64 -64 -100 3 -26 -3 -37 -34 -62 -22
-19 -43 -28 -53 -25 -14 6 -14 10 2 44 9 21 17 52 18 68 0 17 4 36 8 43 25 38
-34 42 -104 7 -52 -27 -129 -98 -129 -120 0 -30 -91 -108 -107 -91 -3 2 9 26
27 51 18 26 34 64 37 86 5 34 3 39 -14 39 -11 0 -42 -17 -69 -37 l-48 -37 42
76 c42 77 42 104 1 76 -23 -15 -150 -200 -142 -208 2 -3 16 8 29 23 36 42 29
16 -26 -97 -51 -104 -66 -176 -36 -176 15 0 37 42 57 109 l13 43 48 -5 c61 -8
87 2 141 52 l43 40 19 -30 c11 -16 27 -29 35 -29 8 0 33 19 57 42 l42 41 -5
-35 c-5 -30 -3 -38 16 -48 21 -11 29 -6 111 79 54 57 95 91 108 91 20 0 20 -1
-4 -36 -29 -42 -32 -85 -9 -108 23 -23 30 -21 84 30 l49 46 16 -31 c21 -42 41
-39 92 11 l43 43 -6 -34 c-6 -26 -3 -37 10 -47 25 -18 51 -3 104 58 52 60 55
80 5 39 -62 -51 -88 -36 -53 31 13 25 19 50 16 64 -4 13 -2 25 4 29 17 11 -2
35 -29 35 -14 -1 -47 -12 -72 -25z m50 -56 c-6 -12 -35 -47 -65 -77 -41 -43
-57 -53 -66 -44 -20 20 8 60 73 102 34 22 64 40 66 40 2 0 -1 -10 -8 -21z
m-498 -38 c-6 -10 -35 -45 -66 -77 -42 -45 -57 -56 -67 -46 -20 20 7 60 73
102 34 22 64 40 66 40 2 0 -1 -8 -6 -19z m-281 -59 c0 -21 -62 -92 -80 -92
-28 0 -25 10 16 58 32 38 64 55 64 34z"/>
<path d="M7560 3375 c-14 -37 -12 -61 5 -75 22 -18 45 5 45 46 0 23 -6 37 -20
44 -17 9 -22 7 -30 -15z"/>
<path d="M4472 3368 c-14 -14 -16 -54 -2 -63 13 -8 50 31 50 55 0 23 -29 27
-48 8z"/>
<path d="M3274 3168 c-30 -23 -44 -37 -100 -102 -43 -50 -45 -29 -3 29 30 42
32 65 5 65 -18 0 -53 -40 -70 -80 -15 -37 -52 -77 -62 -67 -3 3 -1 14 5 25 14
26 14 73 1 106 -22 59 -119 14 -164 -76 -26 -53 -91 -108 -126 -108 -21 0 -40
19 -40 40 0 26 52 70 76 64 23 -6 48 24 60 70 13 53 -50 44 -117 -17 -46 -41
-59 -66 -59 -114 0 -41 19 -76 51 -93 24 -13 50 -1 101 47 l36 35 13 -23 c6
-13 17 -27 23 -31 22 -15 65 -7 94 17 17 14 37 25 45 25 8 0 20 7 27 15 18 22
27 18 34 -15 9 -47 32 -36 80 38 25 38 55 77 66 87 18 16 17 10 -9 -45 -35
-74 -37 -83 -16 -100 16 -13 31 -1 103 89 23 30 42 51 42 49 0 -3 -9 -26 -21
-52 -49 -112 27 -120 116 -12 45 55 39 74 -8 28 -34 -33 -67 -42 -67 -19 0 7
11 29 25 49 29 42 32 76 9 85 -10 4 -35 -14 -75 -53 l-60 -59 22 49 c18 42 19
50 7 63 -12 12 -18 11 -44 -9z m-284 -107 c-6 -23 -8 -46 -5 -51 3 -5 -6 -17
-20 -26 -32 -21 -54 -6 -47 32 5 27 68 101 78 92 3 -3 0 -25 -6 -47z"/>
</g>
</svg>
